# File created by Blade
# Date/Time:  Thu Sep 25 15:41:58 2014
# Frame Rate: 120.000 fps
#------------------------------------------------------
:FULLY-SPECIFIED
:DEGREES
645
root -15.780724 35.987710 -1.213935 212.743000 -77.716574 -41.980903
Spine -15.302941 10.877376 -5.104831
Head -87.470093 7.241866 -0.655540
LeftShoulder -20.011681 32.579138 12.944119
LeftArm 164.406759 -69.451229 -101.694786
LeftForeArm -13.641841 0.000000 10.162079
LeftHand -44.731311 0.000000 83.630238
LeftHandThumb1 -26.253704 0.000000 33.147579
RightShoulder -13.895168 7.423751 -24.065748
RightArm 109.797870 49.126386 58.332250
RightForeArm -20.246758 -0.000000 29.713697
RightHand -8.515868 -0.000000 -72.573046
RightHandThumb1 -24.326973 -0.000000 -32.862282
LeftUpLeg -45.912095 27.935138 25.877535
LeftLeg 33.936102 -0.000000 -0.000000
LeftFoot 1.159838 15.716125 -27.437547
LeftToeBase -0.272734 -0.000000 0.000000
RightUpLeg 7.199888 -39.364008 -40.838338
RightLeg 0.322057 -0.000000 -0.000000
RightFoot 34.751460 -3.158748 -4.466826
RightToeBase 12.138783 -0.000000 -0.000000
646
root -15.731666 35.984545 -1.171154 216.225877 -78.201797 -45.801767
Spine -14.921853 10.757519 -5.380447
Head -87.362467 6.906850 -0.912190
LeftShoulder -19.542475 32.123646 13.317064
LeftArm 162.738408 -69.805337 -100.019437
LeftForeArm -14.216302 -0.000000 9.391488
LeftHand -43.112934 0.000000 84.078738
LeftHandThumb1 -26.253704 0.000000 33.147579
RightShoulder -13.973217 7.533500 -24.208514
RightArm 109.735052 49.315579 58.264554
RightForeArm -20.797312 -0.000000 29.846641
RightHand -8.627718 -0.000000 -72.058519
RightHandThumb1 -24.326973 -0.000000 -32.862282
LeftUpLeg -48.839283 27.118745 23.503831
LeftLeg 34.559943 -0.000000 -0.000000
LeftFoot 0.179987 14.300867 -27.681707
LeftToeBase 1.511220 -0.000000 -0.000000
RightUpLeg 6.870584 -39.152291 -39.786309
RightLeg 0.525283 -0.000000 -0.000000
RightFoot 34.518927 -3.122103 -4.624439
RightToeBase 12.241681 -0.000000 -0.000000
647
root -15.682178 35.980548 -1.123107 220.338789 -78.682394 -50.164287
Spine -14.649409 10.612497 -5.669752
Head -87.224103 6.491623 -1.177141
LeftShoulder -19.158446 32.194311 13.533556
LeftArm 162.643946 -69.832917 -99.930300
LeftForeArm -14.860899 -0.000000 8.937647
LeftHand -42.881602 -0.000000 83.929988
LeftHandThumb1 -26.253704 0.000000 33.147579
RightShoulder -14.070369 7.567577 -24.364915
RightArm 109.766041 49.566279 58.250356
RightForeArm -21.252406 -0.000000 29.952298
RightHand -8.681091 -0.000000 -71.576054
RightHandThumb1 -24.326973 -0.000000 -32.862282
LeftUpLeg -51.847004 26.168572 21.086743
LeftLeg 35.026709 -0.000000 -0.000000
LeftFoot -0.863418 12.866008 -27.936358
LeftToeBase 1.236488 -0.000000 -0.000000
RightUpLeg 6.423339 -38.982874 -38.690869
RightLeg 0.755042 -0.000000 -0.000000
RightFoot 34.331800 -3.091319 -4.643501
RightToeBase 12.081031 -0.000000 -0.000000
648
root -15.636146 35.978773 -1.072208 224.807610 -79.065657 -54.798371
Spine -14.473089 10.402393 -5.963113
Head -87.040296 6.154720 -1.425351
LeftShoulder -18.879742 32.424149 13.683008
LeftArm 163.005950 -69.656921 -100.371177
LeftForeArm -15.340110 -0.000000 8.851670
LeftHand -44.093193 0.000000 82.919859
LeftHandThumb1 -26.253704 0.000000 33.147579
RightShoulder -14.048129 7.445010 -24.452263
RightArm 109.930201 50.015652 58.245378
RightForeArm -21.619211 -0.000000 29.998707
RightHand -8.735474 0.000000 -71.114084
RightHandThumb1 -24.326973 -0.000000 -32.862282
LeftUpLeg -54.840480 25.114519 18.728517
LeftLeg 35.254420 -0.000000 -0.000000
LeftFoot -1.866640 11.539116 -28.526115
LeftToeBase -0.178134 -0.000000 0.000000
RightUpLeg 5.810600 -38.628923 -37.526197
RightLeg 1.000921 -0.000000 -0.000000
RightFoot 34.043623 -2.937656 -4.654999
RightToeBase 11.834229 -0.000000 -0.000000
649
root -15.590455 35.978713 -1.020366 229.828936 -79.472589 -59.990897
Spine -14.252191 10.151666 -6.202802
Head -86.872878 5.751362 -1.652553
LeftShoulder -18.380994 31.931994 14.048496
LeftArm 161.450466 -69.841195 -98.853411
LeftForeArm -16.030610 -0.000000 8.402623
LeftHand -44.156169 -0.000000 82.218825
LeftHandThumb1 -26.253704 0.000000 33.147579
RightShoulder -14.094784 7.516303 -24.688576
RightArm 109.950910 50.228841 58.377790
RightForeArm -22.267517 -0.000000 30.166387
RightHand -8.873971 -0.000000 -70.606405
RightHandThumb1 -24.326973 -0.000000 -32.862282
LeftUpLeg -57.768601 23.828670 16.545986
LeftLeg 35.220076 -0.000000 -0.000000
LeftFoot -2.943084 10.263881 -30.014249
LeftToeBase -1.159337 -0.000000 0.000000
RightUpLeg 5.215458 -38.202960 -36.354814
RightLeg 1.255774 -0.000000 -0.000000
RightFoot 33.713455 -2.682422 -4.795879
RightToeBase 12.035793 -0.000000 -0.000000
650
root -15.544015 35.981193 -0.966962 235.833568 -79.768864 -66.222527
Spine -13.929380 9.789242 -6.589962
Head -86.841099 5.460078 -1.784619
LeftShoulder -17.974817 31.808466 14.310885
LeftArm 161.232240 -70.034095 -98.538397
LeftForeArm -16.636141 -0.000000 7.703760
LeftHand -43.462077 0.000000 82.457777
LeftHandThumb1 -26.253704 0.000000 33.147579
RightShoulder -14.119259 7.557717 -24.817974
RightArm 109.927392 50.619788 58.384296
RightForeArm -22.700745 0.000000 30.318359
RightHand -8.932632 0.000000 -70.111596
RightHandThumb1 -24.326973 -0.000000 -32.862282
LeftUpLeg -60.651787 22.485293 14.150260
LeftLeg 34.851820 -0.000000 -0.000000
LeftFoot -3.856090 9.211244 -30.657127
LeftToeBase -0.767360 -0.000000 0.000000
RightUpLeg 4.684840 -37.610174 -35.329740
RightLeg 1.494107 -0.000000 -0.000000
RightFoot 33.451372 -2.709059 -4.613220
RightToeBase 11.857928 -0.000000 -0.000000
651
root -15.486309 35.987085 -0.913463 241.706403 -79.959542 -72.359766
Spine -13.556869 9.508233 -6.929694
Head -86.845341 5.164345 -1.883557
LeftShoulder -17.541104 31.816895 14.614325
LeftArm 161.420800 -70.088154 -98.755014
LeftForeArm -17.141052 -0.000000 7.343600
LeftHand -43.351254 -0.000000 82.029160
LeftHandThumb1 -26.253704 0.000000 33.147579
RightShoulder -14.165204 7.695820 -25.128097
RightArm 109.528015 51.007293 58.295703
RightForeArm -23.167767 -0.000000 30.648673
RightHand -9.168841 -0.000000 -69.656664
RightHandThumb1 -24.326973 -0.000000 -32.862282
LeftUpLeg -63.377921 21.120334 11.922893
LeftLeg 34.244120 -0.000000 -0.000000
LeftFoot -4.411356 8.046761 -31.827727
LeftToeBase -2.316633 -0.000000 0.000000
RightUpLeg 4.129761 -36.823442 -34.290333
RightLeg 1.756696 -0.000000 -0.000000
RightFoot 33.139439 -2.528087 -4.675312
RightToeBase 11.704084 -0.000000 -0.000000
652
root -15.416683 35.994624 -0.870121 247.455483 -80.080025 -78.363295
Spine -13.205932 9.212058 -7.249649
Head -86.879377 4.947647 -1.945144
LeftShoulder -17.175356 31.986355 14.879175
LeftArm 162.179603 -70.130426 -99.546479
LeftForeArm -17.666635 -0.000000 6.967047
LeftHand -43.292197 0.000000 81.831485
LeftHandThumb1 -26.253704 0.000000 33.147579
RightShoulder -14.202766 7.630820 -25.366344
RightArm 109.240149 51.593010 58.291454
RightForeArm -23.348892 -0.000000 31.030102
RightHand -9.177296 0.000000 -69.083144
RightHandThumb1 -24.326973 -0.000000 -32.862282
LeftUpLeg -65.968076 19.683287 9.941513
LeftLeg 33.384204 -0.000000 -0.000000
LeftFoot -4.922129 6.702349 -33.141881
LeftToeBase -2.622598 -0.000000 0.000000
RightUpLeg 3.543924 -35.931391 -33.183506
RightLeg 1.965078 -0.000000 -0.000000
RightFoot 32.910560 -2.508460 -4.540892
RightToeBase 11.577354 -0.000000 -0.000000
